<svg width="186" height="26" viewBox="0 0 186 26" fill="none" xmlns="http://www.w3.org/2000/svg">
<g id="Vector">
<path d="M0 2C0 0.895431 0.89543 0 2 0H113C114.105 0 115 0.895431 115 2C115 3.10457 114.105 4 113 4H2C0.895433 4 0 3.10457 0 2Z" fill="#ADB5BE"/>
<path d="M121 2C121 0.895431 121.895 0 123 0H141C142.105 0 143 0.895431 143 2C143 3.10457 142.105 4 141 4H123C121.895 4 121 3.10457 121 2Z" fill="#ADB5BE"/>
<path d="M149 2C149 0.895431 149.895 0 151 0H169C170.105 0 171 0.895431 171 2C171 3.10457 170.105 4 169 4H151C149.895 4 149 3.10457 149 2Z" fill="#ADB5BE"/>
<path d="M14 13C14 11.8954 14.8954 11 16 11H34C35.1046 11 36 11.8954 36 13C36 14.1046 35.1046 15 34 15H16C14.8954 15 14 14.1046 14 13Z" fill="#ADB5BE"/>
<path d="M0 24C0 22.8954 0.895431 22 2 22H7C8.10457 22 9 22.8954 9 24C9 25.1046 8.10457 26 7 26H2C0.89543 26 0 25.1046 0 24Z" fill="#ADB5BE"/>
<path d="M15 24C15 22.8954 15.8954 22 17 22H35C36.1046 22 37 22.8954 37 24C37 25.1046 36.1046 26 35 26H17C15.8954 26 15 25.1046 15 24Z" fill="#ADB5BE"/>
<path d="M43 24C43 22.8954 43.8954 22 45 22H63C64.1046 22 65 22.8954 65 24C65 25.1046 64.1046 26 63 26H45C43.8954 26 43 25.1046 43 24Z" fill="#ADB5BE"/>
<path d="M71 24C71 22.8954 71.8954 22 73 22H184C185.105 22 186 22.8954 186 24C186 25.1046 185.105 26 184 26H73C71.8954 26 71 25.1046 71 24Z" fill="#ADB5BE"/>
<path d="M42 13C42 11.8954 42.8954 11 44 11H100C101.105 11 102 11.8954 102 13C102 14.1046 101.105 15 100 15H44C42.8954 15 42 14.1046 42 13Z" fill="#ADB5BE"/>
<path d="M108 13C108 11.8954 108.895 11 110 11H152C153.105 11 154 11.8954 154 13C154 14.1046 153.105 15 152 15H110C108.895 15 108 14.1046 108 13Z" fill="#ADB5BE"/>
<path d="M160 13C160 11.8954 160.895 11 162 11H167C168.105 11 169 11.8954 169 13C169 14.1046 168.105 15 167 15H162C160.895 15 160 14.1046 160 13Z" fill="#ADB5BE"/>
<path d="M177 2C177 0.895431 177.895 0 179 0H184C185.105 0 186 0.895431 186 2C186 3.10457 185.105 4 184 4H179C177.895 4 177 3.10457 177 2Z" fill="#ADB5BE"/>
</g>
</svg>
